<svg width="24" height="24" viewBox="0 0 24 24" fill="none" xmlns="http://www.w3.org/2000/svg">
<path fill-rule="evenodd" clip-rule="evenodd" d="M17.1901 15.478L23.6458 21.9337C23.8727 22.1608 24.0001 22.4687 24 22.7897C23.9999 23.1107 23.8723 23.4185 23.6452 23.6454C23.4181 23.8723 23.1102 23.9998 22.7892 23.9996C22.4682 23.9995 22.1604 23.8719 21.9335 23.6448L15.4778 17.1891C13.5479 18.6839 11.1211 19.3873 8.69104 19.1563C6.26097 18.9252 4.01018 17.7771 2.39656 15.9455C0.782936 14.1139 -0.0723147 11.7364 0.00479537 9.29656C0.0819054 6.85675 1.08558 4.53796 2.81165 2.81189C4.53771 1.08583 6.85651 0.0821496 9.29632 0.00503951C11.7361 -0.0720706 14.1137 0.78318 15.9453 2.3968C17.7769 4.01043 18.925 6.26122 19.156 8.69129C19.387 11.1214 18.6836 13.5482 17.1889 15.478H17.1901ZM9.60045 16.7992C11.5099 16.7992 13.3412 16.0406 14.6914 14.6904C16.0416 13.3402 16.8001 11.509 16.8001 9.59949C16.8001 7.69002 16.0416 5.85876 14.6914 4.50856C13.3412 3.15836 11.5099 2.39983 9.60045 2.39983C7.69098 2.39983 5.85971 3.15836 4.50951 4.50856C3.15932 5.85876 2.40078 7.69002 2.40078 9.59949C2.40078 11.509 3.15932 13.3402 4.50951 14.6904C5.85971 16.0406 7.69098 16.7992 9.60045 16.7992Z" fill="#252B42"/>
</svg>
