<svg width="57" height="46" viewBox="0 0 57 46" fill="none" xmlns="http://www.w3.org/2000/svg">
<g clip-path="url(#clip0_1_556)">
<g clip-path="url(#clip1_1_556)">
<g clip-path="url(#clip2_1_556)">
<path d="M23.5003 17.748L22.7833 17.011C21.1003 15.281 18.0143 15.878 16.9003 18.053C16.3773 19.076 16.2593 20.553 17.2143 22.438C18.1343 24.253 20.0483 26.427 23.5003 28.795C26.9523 26.427 28.8653 24.253 29.7863 22.438C30.7413 20.552 30.6243 19.076 30.1003 18.053C28.9863 15.878 25.9003 15.28 24.2173 17.01L23.5003 17.748ZM23.5003 30C8.16726 19.868 18.7793 11.96 23.3243 16.143C23.3843 16.198 23.4433 16.255 23.5003 16.314C23.5567 16.2551 23.6154 16.1984 23.6763 16.144C28.2203 11.958 38.8333 19.867 23.5003 30Z" fill="#23A6F0"/>
</g>
<path d="M38.9204 27V18.96L39.3044 19.368H36.9404V18.6H39.7844V27H38.9204Z" fill="#23A6F0"/>
</g>
</g>
<defs>
<clipPath id="clip0_1_556">
<rect width="56" height="46" fill="white" transform="translate(0.500366)"/>
</clipPath>
<clipPath id="clip1_1_556">
<rect width="56" height="46" fill="white" transform="translate(0.500366)"/>
</clipPath>
<clipPath id="clip2_1_556">
<rect width="16" height="16" fill="white" transform="translate(15.5004 15)"/>
</clipPath>
</defs>
</svg>
