<svg width="47" height="46" viewBox="0 0 47 46" fill="none" xmlns="http://www.w3.org/2000/svg">
<g clip-path="url(#clip0_1_546)">
<g clip-path="url(#clip1_1_546)">
<path d="M27.2427 25.344C28.2109 24.0227 28.6446 22.3845 28.457 20.7571C28.2693 19.1298 27.4741 17.6333 26.2304 16.5671C24.9868 15.5009 23.3864 14.9436 21.7495 15.0067C20.1126 15.0697 18.5598 15.7485 17.4019 16.9073C16.244 18.066 15.5663 19.6193 15.5044 21.2562C15.4425 22.8932 16.001 24.4931 17.0681 25.736C18.1352 26.9789 19.6322 27.773 21.2597 27.9596C22.8871 28.1461 24.525 27.7112 25.8457 26.742H25.8447C25.8747 26.782 25.9067 26.82 25.9427 26.857L29.7927 30.707C29.9802 30.8946 30.2345 31.0001 30.4998 31.0002C30.7651 31.0003 31.0195 30.895 31.2072 30.7075C31.3948 30.52 31.5003 30.2656 31.5004 30.0003C31.5005 29.7351 31.3952 29.4806 31.2077 29.293L27.3577 25.443C27.3219 25.4068 27.2835 25.3734 27.2427 25.343V25.344ZM27.5007 21.5C27.5007 22.2222 27.3584 22.9374 27.082 23.6047C26.8056 24.272 26.4005 24.8783 25.8897 25.3891C25.379 25.8998 24.7727 26.3049 24.1054 26.5813C23.4381 26.8577 22.7229 27 22.0007 27C21.2784 27 20.5632 26.8577 19.8959 26.5813C19.2286 26.3049 18.6223 25.8998 18.1116 25.3891C17.6008 24.8783 17.1957 24.272 16.9193 23.6047C16.6429 22.9374 16.5007 22.2222 16.5007 21.5C16.5007 20.0413 17.0801 18.6423 18.1116 17.6109C19.143 16.5794 20.542 16 22.0007 16C23.4593 16 24.8583 16.5794 25.8897 17.6109C26.9212 18.6423 27.5007 20.0413 27.5007 21.5V21.5Z" fill="#23A6F0"/>
</g>
</g>
<defs>
<clipPath id="clip0_1_546">
<rect width="46.0006" height="46.0003" fill="white" transform="translate(0.499756 -0.00012207)"/>
</clipPath>
<clipPath id="clip1_1_546">
<rect width="16.0006" height="16.0003" fill="white" transform="translate(15.4998 14.9999)"/>
</clipPath>
</defs>
</svg>
