<svg width="57" height="46" viewBox="0 0 57 46" fill="none" xmlns="http://www.w3.org/2000/svg">
<g clip-path="url(#clip0_1_550)">
<g clip-path="url(#clip1_1_550)">
<g clip-path="url(#clip2_1_550)">
<path d="M15.5004 16.5C15.5004 16.3674 15.553 16.2402 15.6468 16.1464C15.7406 16.0527 15.8678 16 16.0004 16H17.5004C17.6119 16 17.7202 16.0374 17.8081 16.106C17.896 16.1747 17.9584 16.2708 17.9854 16.379L18.3904 18H30.0004C30.0738 18.0001 30.1463 18.0163 30.2127 18.0476C30.2792 18.0788 30.3379 18.1243 30.3848 18.1808C30.4316 18.2373 30.4655 18.3035 30.4839 18.3745C30.5023 18.4456 30.5049 18.5198 30.4914 18.592L28.9914 26.592C28.9699 26.7066 28.9091 26.8101 28.8195 26.8846C28.7298 26.9591 28.6169 26.9999 28.5004 27H19.5004C19.3838 26.9999 19.2709 26.9591 19.1813 26.8846C19.0916 26.8101 19.0308 26.7066 19.0094 26.592L17.5104 18.607L17.1104 17H16.0004C15.8678 17 15.7406 16.9473 15.6468 16.8536C15.553 16.7598 15.5004 16.6326 15.5004 16.5ZM18.6024 19L19.9154 26H28.0854L29.3984 19H18.6024ZM20.5004 27C19.9699 27 19.4612 27.2107 19.0862 27.5858C18.7111 27.9609 18.5004 28.4696 18.5004 29C18.5004 29.5304 18.7111 30.0391 19.0862 30.4142C19.4612 30.7893 19.9699 31 20.5004 31C21.0308 31 21.5395 30.7893 21.9146 30.4142C22.2897 30.0391 22.5004 29.5304 22.5004 29C22.5004 28.4696 22.2897 27.9609 21.9146 27.5858C21.5395 27.2107 21.0308 27 20.5004 27ZM27.5004 27C26.9699 27 26.4612 27.2107 26.0862 27.5858C25.7111 27.9609 25.5004 28.4696 25.5004 29C25.5004 29.5304 25.7111 30.0391 26.0862 30.4142C26.4612 30.7893 26.9699 31 27.5004 31C28.0308 31 28.5395 30.7893 28.9146 30.4142C29.2897 30.0391 29.5004 29.5304 29.5004 29C29.5004 28.4696 29.2897 27.9609 28.9146 27.5858C28.5395 27.2107 28.0308 27 27.5004 27ZM20.5004 28C20.7656 28 21.0199 28.1054 21.2075 28.2929C21.395 28.4804 21.5004 28.7348 21.5004 29C21.5004 29.2652 21.395 29.5196 21.2075 29.7071C21.0199 29.8946 20.7656 30 20.5004 30C20.2351 30 19.9808 29.8946 19.7933 29.7071C19.6057 29.5196 19.5004 29.2652 19.5004 29C19.5004 28.7348 19.6057 28.4804 19.7933 28.2929C19.9808 28.1054 20.2351 28 20.5004 28ZM27.5004 28C27.7656 28 28.0199 28.1054 28.2075 28.2929C28.395 28.4804 28.5004 28.7348 28.5004 29C28.5004 29.2652 28.395 29.5196 28.2075 29.7071C28.0199 29.8946 27.7656 30 27.5004 30C27.2351 30 26.9808 29.8946 26.7933 29.7071C26.6057 29.5196 26.5004 29.2652 26.5004 29C26.5004 28.7348 26.6057 28.4804 26.7933 28.2929C26.9808 28.1054 27.2351 28 27.5004 28V28Z" fill="#23A6F0"/>
</g>
<path d="M38.9204 27V18.96L39.3044 19.368H36.9404V18.6H39.7844V27H38.9204Z" fill="#23A6F0"/>
</g>
</g>
<defs>
<clipPath id="clip0_1_550">
<rect width="56" height="46" fill="white" transform="translate(0.500366)"/>
</clipPath>
<clipPath id="clip1_1_550">
<rect width="56" height="46" fill="white" transform="translate(0.500366)"/>
</clipPath>
<clipPath id="clip2_1_550">
<rect width="16" height="16" fill="white" transform="translate(15.5004 15)"/>
</clipPath>
</defs>
</svg>
