<svg width="24" height="18" viewBox="0 0 24 18" fill="none" xmlns="http://www.w3.org/2000/svg">
<path d="M22.4 4.00016H4.656L4 0.640163C3.9626 0.456742 3.86206 0.292245 3.71589 0.175305C3.56971 0.0583653 3.38716 -0.00361159 3.2 0.000162751H0V1.60016H2.544L5.6 16.9602C5.6374 17.1436 5.73794 17.3081 5.88411 17.425C6.03029 17.542 6.21284 17.6039 6.4 17.6002H20.8V16.0002H7.056L6.4 12.8002H20.8C20.9849 12.8047 21.1657 12.745 21.3116 12.6312C21.4574 12.5174 21.5594 12.3566 21.6 12.1762L23.2 4.97616C23.2268 4.85746 23.2262 4.73421 23.1982 4.61579C23.1702 4.49737 23.1155 4.38689 23.0384 4.29278C22.9612 4.19867 22.8636 4.12339 22.753 4.07268C22.6424 4.02198 22.5217 3.99717 22.4 4.00016ZM20.16 11.2002H6.096L4.976 5.60016H21.4L20.16 11.2002Z" fill="#252B42"/>
</svg>
